<svg width="20" height="20" viewBox="0 0 20 20" fill="none" xmlns="http://www.w3.org/2000/svg">
<path d="M16.6006 7.33594C16.6363 7.33602 16.667 7.34963 16.6885 7.37109C16.7099 7.39261 16.7236 7.42326 16.7236 7.45898C16.7236 7.49473 16.7099 7.52538 16.6885 7.54688L11.2549 12.9805C10.9102 13.3251 10.4552 13.501 10 13.501C9.54478 13.5009 9.08976 13.3251 8.74512 12.9805L3.3125 7.54688C3.291 7.52537 3.27738 7.49478 3.27734 7.45898C3.27734 7.42313 3.29097 7.39262 3.3125 7.37109C3.33403 7.34957 3.36454 7.33594 3.40039 7.33594C3.43619 7.33597 3.46678 7.34959 3.48828 7.37109L8.92188 12.8037C9.51714 13.399 10.4838 13.399 11.0791 12.8037L16.5117 7.37109C16.5332 7.34957 16.5647 7.33594 16.6006 7.33594Z" fill="#868686" stroke="#868686"/>
</svg>
